<?xml version="1.0" standalone="no"?>
<!DOCTYPE svg PUBLIC "-//W3C//DTD SVG 20010904//EN"
 "http://www.w3.org/TR/2001/REC-SVG-20010904/DTD/svg10.dtd">
<svg version="1.0" xmlns="http://www.w3.org/2000/svg"
 width="260.000000pt" height="260.000000pt" viewBox="0 0 260.000000 260.000000"
 preserveAspectRatio="xMidYMid meet">
<metadata>
Created by potrace 1.11, written by Peter Selinger 2001-2013
</metadata>
<g transform="translate(0.000000,260.000000) scale(0.100000,-0.100000)"
fill="#000000" stroke="none">
<path d="M1829 1876 c-132 -38 -217 -103 -266 -204 -47 -97 -39 -234 21 -336
38 -65 109 -124 253 -209 124 -73 187 -126 213 -176 31 -60 7 -181 -44 -222
-21 -17 -20 -18 19 -13 104 12 224 69 285 135 61 67 90 160 87 273 -5 138 -64
210 -280 337 -159 94 -221 145 -248 204 -31 67 -21 155 22 202 13 12 21 25 18
27 -2 2 -38 -6 -80 -18z"/>
<path d="M2123 1870 c59 -40 119 -109 169 -192 58 -97 57 -96 53 -70 -2 13 -5
73 -7 134 -3 122 -2 121 -78 133 -25 4 -52 9 -60 10 -8 1 -40 6 -70 10 l-55 7
48 -32z"/>
<path d="M245 1856 c55 -52 57 -76 57 -551 0 -472 -2 -497 -56 -551 l-32 -32
304 1 c209 0 299 3 286 10 -34 18 -65 51 -82 87 -14 31 -17 98 -19 535 -1 275
-3 507 -3 516 0 14 -27 16 -244 16 l-244 0 33 -31z"/>
<path d="M850 1881 c0 -3 8 -11 18 -18 51 -32 80 -166 76 -352 -3 -138 -25
-220 -70 -265 l-33 -33 86 13 c185 28 318 96 388 200 39 58 40 60 40 149 -1
72 -5 98 -22 131 -38 71 -110 120 -219 148 -85 21 -264 40 -264 27z"/>
<path d="M1535 980 c2 -63 6 -137 7 -163 1 -32 7 -51 18 -57 19 -10 99 -25
245 -46 l30 -4 -35 28 c-97 77 -189 191 -244 303 l-27 54 6 -115z"/>
</g>
</svg>
